<svg width="48" height="48" viewBox="0 0 48 48" fill="none" xmlns="http://www.w3.org/2000/svg">
<rect width="48" height="48" fill="#EEEEEE"/>
<path fill-rule="evenodd" clip-rule="evenodd" d="M24 21C25.6569 21 27 19.6569 27 18C27 16.3431 25.6569 15 24 15C22.3431 15 21 16.3431 21 18C21 19.6569 22.3431 21 24 21ZM24 23C26.7614 23 29 20.7614 29 18C29 15.2386 26.7614 13 24 13C21.2386 13 19 15.2386 19 18C19 20.7614 21.2386 23 24 23Z" fill="black"/>
<path fill-rule="evenodd" clip-rule="evenodd" d="M28.5969 31.8395C29.7076 31.1453 30 30.4423 30 30C30 29.5577 29.7076 28.8547 28.5969 28.1605C27.5143 27.4839 25.8943 27 24 27C22.1057 27 20.4857 27.4839 19.4031 28.1605C18.2924 28.8547 18 29.5577 18 30C18 30.4423 18.2924 31.1453 19.4031 31.8395C20.4857 32.5161 22.1057 33 24 33C25.8943 33 27.5143 32.5161 28.5969 31.8395ZM24 35C28.4183 35 32 32.7614 32 30C32 27.2386 28.4183 25 24 25C19.5817 25 16 27.2386 16 30C16 32.7614 19.5817 35 24 35Z" fill="black"/>
</svg>
