<svg width="400" height="300" viewBox="0 0 400 300" fill="none" xmlns="http://www.w3.org/2000/svg">
<rect width="400" height="300" fill="#EEEEEE"/>
<path fill-rule="evenodd" clip-rule="evenodd" d="M176.252 126.252C179.811 122.694 185.136 121.333 192 121.333H208C214.864 121.333 220.189 122.694 223.748 126.252C227.306 129.811 228.667 135.136 228.667 142V155.061C228.667 155.065 228.667 155.07 228.667 155.075V158C228.667 164.864 227.306 170.189 223.748 173.748C220.189 177.306 214.864 178.667 208 178.667H192C185.136 178.667 179.811 177.306 176.252 173.748C172.694 170.189 171.333 164.864 171.333 158V142C171.333 135.136 172.694 129.811 176.252 126.252ZM224.667 150.712V142C224.667 135.531 223.361 131.522 220.919 129.081C218.478 126.639 214.469 125.333 208 125.333H192C185.531 125.333 181.522 126.639 179.081 129.081C176.639 131.522 175.333 135.531 175.333 142V158C175.333 160.969 175.608 163.419 176.142 165.438L187.152 158.046C189.987 156.144 194.018 156.336 196.61 158.563L196.627 158.578L197.497 159.343C198.829 160.479 201.075 160.477 202.403 159.336L213.497 149.816C216.326 147.386 220.794 147.386 223.623 149.816L224.667 150.712ZM177.716 169.199L189.381 161.367C190.757 160.445 192.8 160.57 193.996 161.591L194.866 162.356L194.883 162.37C197.713 164.801 202.18 164.8 205.01 162.37L216.103 152.85C217.434 151.708 219.686 151.708 221.017 152.85L224.667 155.985V158C224.667 164.469 223.361 168.478 220.919 170.919C218.478 173.361 214.469 174.667 208 174.667H192C185.531 174.667 181.522 173.361 179.081 170.919C178.577 170.415 178.121 169.845 177.716 169.199ZM192 136C190.159 136 188.667 137.492 188.667 139.333C188.667 141.174 190.159 142.667 192 142.667C193.841 142.667 195.333 141.174 195.333 139.333C195.333 137.492 193.841 136 192 136ZM184.667 139.333C184.667 135.283 187.95 132 192 132C196.05 132 199.333 135.283 199.333 139.333C199.333 143.383 196.05 146.667 192 146.667C187.95 146.667 184.667 143.383 184.667 139.333Z" fill="black"/>
</svg>
