<svg width="400" height="400" viewBox="0 0 400 400" fill="none" xmlns="http://www.w3.org/2000/svg">
<rect width="400" height="400" fill="#EEEEEE"/>
<path d="M192 226.667H208C221.333 226.667 226.667 221.333 226.667 208V192C226.667 178.667 221.333 173.333 208 173.333H192C178.667 173.333 173.333 178.667 173.333 192V208C173.333 221.333 178.667 226.667 192 226.667Z" stroke="black" stroke-width="4" stroke-linecap="round" stroke-linejoin="round"/>
<path d="M192 194.667C194.946 194.667 197.333 192.279 197.333 189.333C197.333 186.388 194.946 184 192 184C189.054 184 186.667 186.388 186.667 189.333C186.667 192.279 189.054 194.667 192 194.667Z" stroke="black" stroke-width="4" stroke-linecap="round" stroke-linejoin="round"/>
<path d="M175.12 218.533L188.267 209.707C190.373 208.293 193.413 208.453 195.307 210.08L196.187 210.853C198.267 212.64 201.627 212.64 203.707 210.853L214.8 201.333C216.88 199.547 220.24 199.547 222.32 201.333L226.667 205.067" stroke="black" stroke-width="4" stroke-linecap="round" stroke-linejoin="round"/>
</svg>
