<svg width="600" height="300" viewBox="0 0 600 300" fill="none" xmlns="http://www.w3.org/2000/svg">
<rect width="600" height="300" fill="#EEEEEE"/>
<path fill-rule="evenodd" clip-rule="evenodd" d="M284.667 139.333C284.667 135.283 287.95 132 292 132C296.05 132 299.333 135.283 299.333 139.333C299.333 143.383 296.05 146.667 292 146.667C287.95 146.667 284.667 143.383 284.667 139.333ZM292 136C290.159 136 288.667 137.492 288.667 139.333C288.667 141.174 290.159 142.667 292 142.667C293.841 142.667 295.333 141.174 295.333 139.333C295.333 137.492 293.841 136 292 136Z" fill="black"/>
<path fill-rule="evenodd" clip-rule="evenodd" d="M276.252 126.252C279.811 122.694 285.136 121.333 292 121.333H308C314.864 121.333 320.189 122.694 323.748 126.252C327.306 129.811 328.667 135.136 328.667 142V158C328.667 164.864 327.306 170.189 323.748 173.748C320.189 177.306 314.864 178.667 308 178.667H292C285.136 178.667 279.811 177.306 276.252 173.748C272.694 170.189 271.333 164.864 271.333 158V142C271.333 135.136 272.694 129.811 276.252 126.252ZM279.081 129.081C276.64 131.522 275.333 135.531 275.333 142V158C275.333 160.969 275.608 163.419 276.142 165.438L287.152 158.046C289.987 156.144 294.018 156.336 296.61 158.563L296.627 158.578L297.497 159.343C298.829 160.479 301.075 160.477 302.403 159.336L313.497 149.816C316.326 147.386 320.794 147.386 323.623 149.816L324.667 150.713V142C324.667 135.531 323.361 131.522 320.919 129.081C318.478 126.639 314.469 125.333 308 125.333H292C285.531 125.333 281.522 126.639 279.081 129.081ZM324.667 155.985L321.017 152.85C319.686 151.708 317.434 151.708 316.103 152.85L305.01 162.37C302.18 164.8 297.713 164.801 294.883 162.37L294.866 162.356L293.996 161.591C292.8 160.57 290.757 160.445 289.381 161.367L277.716 169.199C278.122 169.845 278.577 170.415 279.081 170.919C281.522 173.361 285.531 174.667 292 174.667H308C314.469 174.667 318.478 173.361 320.919 170.919C323.361 168.478 324.667 164.469 324.667 158V155.985Z" fill="black"/>
</svg>
